<svg version="1.1" id="Livello_1" xmlns="http://www.w3.org/2000/svg" x="0" y="0" viewBox="0 0 102 102"
	style="enable-background:new 0 0 102 102" xml:space="preserve">
	<style>
		.st0 {
			fill: #0b6
		}

	</style>
	<path class="st0"
		d="M69.5 13.2c-.6-.2-1.1-.3-1.7-.4C65.8 5.6 58.8.4 51 .4c-7.8 0-14.8 5.3-16.8 12.4-9 2-15.5 9.9-15.5 19.3 0 2.4.4 4.7 1.2 6.9-4 2.2-6.7 6.3-7.1 10.9-7.2 2-12.5 8.7-12.5 16 0 9.1 8 16.8 17.4 16.8 2.4 0 4.8-.5 6.9-1.5v16.6H8.8c-1.1 0-2 .9-2 2s.9 2 2 2h84.4c1.1 0 2-.9 2-2s-.9-2-2-2H77.4V81.2c2.2 1 4.5 1.5 6.9 1.5 9.5 0 17.4-7.7 17.4-16.8 0-7.3-5.3-14-12.5-16.1-.4-4.6-3.1-8.7-7.1-10.9.8-2.2 1.2-4.5 1.2-6.9 0-1.6-.2-3.3-.6-4.8-.3-1.1-1.4-1.7-2.4-1.4-1.1.3-1.7 1.4-1.4 2.4.3 1.3.5 2.5.5 3.9 0 1.9-.3 3.7-1 5.5-1-.2-2-.3-3-.3-7.2 0-13.2 5.6-13.8 12.6-3.4 1-6.4 3-8.6 5.6V39.2l11.3-5.4c1-.5 1.4-1.7.9-2.6-.5-1-1.7-1.4-2.6-.9L53 34.8V20.1c0-1.1-.9-2-2-2s-2 .9-2 2v8.7l-9.6-4.6c-1-.5-2.2 0-2.6.9-.5 1 0 2.2.9 2.6L49 33.2v22.1c-2.2-2.6-5.2-4.6-8.6-5.6-.6-7.1-6.6-12.6-13.8-12.6-1 0-2 .1-3 .3-.6-1.7-1-3.6-1-5.5 0-7.9 5.6-14.4 13.5-15.6.8-.1 1.5-.8 1.7-1.6C38.9 8.8 44.7 4.2 51 4.2c6.3 0 12.1 4.6 13.2 10.5.2.8.8 1.5 1.7 1.6.8.1 1.6.3 2.4.6l1.2-3.7zm-40.9 68c2.2 1 4.5 1.5 6.9 1.5 5.4 0 10.2-2.5 13.5-6.3v21.4H28.6V81.2zM53 97.8V76.4c3.2 3.8 8.1 6.3 13.5 6.3 2.4 0 4.8-.5 6.9-1.5v16.6H53zm10.9-44.6c1-.2 1.7-1.1 1.6-2.3 0-5.4 4.5-9.8 9.9-9.8s9.9 4.4 9.9 9.8c-.2 1.2.6 2.1 1.6 2.3 6.2 1.2 10.9 6.7 10.9 12.6 0 7-6.2 12.9-13.5 12.9-2.5 0-4.8-.7-6.9-2.1V70l10.8-5.4c1-.5 1.4-1.7.9-2.7s-1.7-1.4-2.7-.9l-9 4.5V51c0-1.1-.9-2-2-2s-2 .9-2 2v7.1l-2.6-2.6c-.8-.8-2-.8-2.8 0-.8.8-.8 2 0 2.8l5.4 5.4v13c-2.1 1.4-4.5 2.1-6.9 2.1-7.3 0-13.5-5.9-13.5-12.9 0-6 4.7-11.4 10.9-12.7zm-48.7 0c1-.2 1.7-1.1 1.6-2.3 0-5.4 4.4-9.8 9.9-9.8s9.9 4.4 9.9 9.8c-.2 1.2.6 2.1 1.6 2.3C44.3 54.5 49 59.9 49 65.9c0 7-6.2 12.9-13.5 12.9-2.5 0-4.8-.7-6.9-2.1v-1.1l5.4-5.4c.8-.8.8-2 0-2.8-.8-.8-2-.8-2.8 0L28.6 70V57c0-1.1-.9-2-2-2s-2 .9-2 2v8.7l-9-4.5c-1-.5-2.2-.1-2.7.9s-.1 2.2.9 2.7l10.8 5.4v6.6c-2.1 1.4-4.5 2.1-6.9 2.1C10.4 78.9 4.2 73 4.2 66c0-6.1 4.7-11.5 11-12.8z" />
	<path class="st0" d="M66.4 16.4c1.3.2 2.5.6 3.7 1.2 1 .4 2.2 0 2.6-1 .4-1 0-2.2-1-2.6-1.5-.7-3-1.2-4.6-1.5" />
</svg>
