<svg version="1.1" id="Livello_1" xmlns="http://www.w3.org/2000/svg" x="0" y="0" viewBox="0 0 164 113"
	style="enable-background:new 0 0 164 113" xml:space="preserve">
	<style>
		.st0 {
			fill: #0b6
		}

	</style>
	<path class="st0" d="m42.2 31.7-6-3c-.8-.4-1.9-.1-2.3.8-.4.9-.1 1.9.7 2.3l6 3c.8.4 1.9.1 2.3-.8.4-.9.1-1.9-.7-2.3z" />
	<path class="st0"
		d="M66.4 29.3c.4-.9.1-1.9-.7-2.3l-15.4-7.9c-.6-.3-1.3-.2-1.9.3-.2.2-5 4.2-10.7 1.3-5.8-3-5.2-9.2-5.1-9.4.1-.7-.3-1.4-.9-1.7L16.3 1.7c-.4-.2-.9-.2-1.3-.1-.4.2-.8.4-1 .9L7.1 15.7c-.4.9-.1 1.9.7 2.3l8.2 4.2-14.1 27c-.4.8-.2 1.8.7 2.2l30.1 15.4c.8.4 1.9.1 2.3-.8l14-27 8.2 4.2c.4.2.9.2 1.3.1s.8-.4 1-.9l6.9-13.1zm-17.2 5.9c-.8-.4-1.9-.1-2.3.8L32.8 63 5.6 49.1l14.1-27c.4-.9.1-1.9-.7-2.3l-8.2-4.2 5.3-10.1 13 6.7c0 2.5.8 8.4 6.9 11.6 6.1 3.1 11.4.4 13.5-1.1l13 6.7-5.3 10.1-8-4.3zM101.9 35.6l22.5.5c.9 0 1.7.8 1.7 1.7s-.8 1.7-1.7 1.6l-22.6-.4c-.8 0-1.5.6-1.6 1.4 0 .6.4 1.2 1 1.5l5.1 2.4c2.7 1.3 5.6 2.4 8.4 3.2 3.9 1.2 7.3 2.1 9.1 2.4l17.1 2.9c.5.1.9.4 1.2.8.3.4.3 1 .2 1.4l-.7 2.1 11.7 4.1.6-1.7-8.3-2.9c-.9-.3-1.4-1.3-1-2.2.3-.9 1.3-1.3 2.2-1l8.3 2.9.6-1.8c1.4-3.9 1.9-7.8 1.7-11.7l-.6-.2-2.3.7c-3.6 1.3-7.7 1.2-11.3-.1-2.1-.7-3.5-2.7-3.4-4.9v-1.5c0-.4-.2-.8-.6-1.1-.4-.3-.8-.3-1.2-.2-.9.3-1.9-.2-2.2-1.1-.3-.9.1-1.8 1-2.1 1.4-.5 3.1-.3 4.3.6 1.2.9 2 2.4 2 3.9v1.5c0 .7.4 1.4 1.1 1.7 2.9 1 6.1 1.1 9 0l2.8-1c.4-.1.8-.1 1.1 0l2.2.8c.6.2 1 .7 1.1 1.3.1.3.1.8.2 1.4.2 4.3-.4 8.7-1.9 13l-2.9 8.2c-.3.9-1.3 1.3-2.2 1l-14.8-5.2c-.4-.1-.8-.4-1-.8-.2-.4-.2-.9-.1-1.3l.6-1.8-15.1-2.5c-2.8-.5-7.2-1.8-9.6-2.5-3-.9-5.9-2.1-8.8-3.4l-5.1-2.4c-1.9-.9-3.1-2.8-2.9-4.8.3-2.5 2.5-4.5 5.1-4.4z" />
	<path class="st0"
		d="M129.7 38.1c-.4.2-.9.2-1.3.1s-.8-.5-1-.9l-1.6-3.3c-.4-.9-.1-1.9.8-2.3s1.9-.1 2.3.8l1.6 3.3c.5 1 .1 1.9-.8 2.3zM134.3 37c-.4.2-.9.2-1.3.1s-.8-.5-1-.9l-1.6-3.3c-.4-.9-.1-1.9.8-2.3.9-.4 1.9-.1 2.3.8l1.6 3.3c.4.9.1 1.9-.8 2.3zM122 81.6c-.5-5-4.6-8.9-9.6-9-.6 0-1.2 0-1.8.2v-7.2c0-5.2-4.2-9.4-9.4-9.4H51.9c-5.2 0-9.4 4.2-9.4 9.4v7.2c-.6-.1-1.2-.2-1.8-.2h-.1c-5 .2-9.1 4.1-9.6 9-.4 4.4 2.1 8.5 6.2 10.1v6.7c0 3.3 2.1 6.1 5.2 7.1v5.5c.1.9.8 1.6 1.7 1.7.9 0 1.7-.8 1.7-1.7v-5.1h61.1v5c0 .4.1.9.3 1.2.3.3.6.6 1.1.6h.3c.9 0 1.7-.8 1.7-1.7v-5.5c3.1-1 5.2-3.8 5.2-7.1v-6.7c4.3-1.6 6.9-5.7 6.5-10.1zM45.9 65.4c0-3.3 2.7-6 6-6H101c3.3 0 6 2.7 6 6v8.5c-.7.4-1.4.9-1.9 1.5-1.1 1.1-2 2.4-2.5 3.9H50.4c-.5-1.5-1.4-2.8-2.5-3.9-.6-.6-1.2-1.1-1.9-1.5l-.1-8.5zm56.3 25.2H50.8v-7.9h51.3l.1 7.9zm-61.5 7.8v-8c0-.8-.6-1.5-1.4-1.7-3.1-.8-5.2-3.7-4.9-6.9.3-3.2 3-5.7 6.3-5.9h.3c1.6 0 3.2.6 4.4 1.8 1.2 1.2 2 2.9 2 4.7v9.9c.1.9.8 1.6 1.7 1.7H104c.9-.1 1.6-.8 1.7-1.7v-9.9c0-1.7.8-3.5 2-4.7s2.9-1.9 4.6-1.8c3.3.1 6 2.6 6.3 5.9.3 3.2-1.8 6.1-4.9 6.9-.8.1-1.4.8-1.4 1.7v8c0 2.2-1.8 4.1-4.1 4.1H44.8c-2.2 0-4.1-1.8-4.1-4.1z" />
</svg>
