<svg version="1.1" id="Livello_1" xmlns="http://www.w3.org/2000/svg" x="0" y="0" viewBox="0 0 152 123"
	style="enable-background:new 0 0 152 123" xml:space="preserve">
	<style>
		.st0 {
			fill: #0b6
		}

	</style>
	<path class="st0"
		d="M129.9 119.1H124V94.5c1.2-1 1.9-2.5 1.9-4.2 0-3.1-2.5-5.6-5.6-5.6h-11.7l-1.8-29c0-.9-.8-1.7-1.8-1.7h-7.7c-.9 0-1.7.7-1.8 1.7l-1.8 29h-4.3l-1.8-29c0-.9-.8-1.7-1.8-1.7h-7.7c-.9 0-1.7.7-1.8 1.7l-1.8 29h-4.3l-1.8-29c0-.9-.8-1.7-1.8-1.7h-7.7c-.9 0-1.7.7-1.8 1.7l-1.8 29h-5l-1.1-50c0-1-.8-1.7-1.8-1.7H35.9c-1 0-1.8.8-1.8 1.7l-1.3 57.7h-14c-3.1 0-5.6 2.5-5.6 5.6 0 1.7.7 3.2 1.9 4.2v17h-3.9c-1 0-1.8.8-1.8 1.8s.8 1.8 1.8 1.8H130c1 0 1.8-.8 1.8-1.8-.1-1.1-.9-1.9-1.9-1.9zM32.8 99.9h-6.3c-1 0-1.8.8-1.8 1.8s.8 1.8 1.8 1.8h6.2l-.3 15.6H18.6v-15.6h.1c1 0 1.8-.8 1.8-1.8s-.8-1.8-1.8-1.8c-1.1 0-2-.9-2-2s.9-2 2-2h14.1v4zM99 57.6h4.3l1.7 27.1h-7.7L99 57.6zm-19.2 0h4.3l1.7 27.1h-7.7l1.7-27.1zm-19.1 0H65l1.7 27.1H59l1.7-27.1zM40 119.1h-4l1.8-82.6h8l1.1 48.1h-3.1c-3.1 0-5.6 2.5-5.6 5.6 0 1.7.7 3.2 1.9 4.2l-.1 24.7zm80.3-26.8h-3.8c-1 0-1.8.8-1.8 1.8s.8 1.8 1.8 1.8h3.9v23.3H43.6V95.9H108.8c1 0 1.8-.8 1.8-1.8s-.8-1.8-1.8-1.8H43.7c-1.1 0-2-.9-2-2s.9-2 2-2h76.6c1.1 0 2 .9 2 2s-.9 2-2 2zM108.8.3c-5.4 0-10.6 1.9-14.7 5.3-3-2.2-6.5-3.4-10.3-3.4-4.5 0-8.8 1.8-12 4.9-1.6-.7-3.3-1.1-5.1-1.1-5.3 0-10.1 3.2-12.2 8-.7-.2-1.4-.3-2.2-.3-3.7 0-6.9 2.4-8 5.8h-.6c-3.1 0-5.6 2.5-5.6 5.6 0 1 .8 1.8 1.8 1.8s1.8-.8 1.8-1.8c0-1.1.9-2 2-2 .3 0 .7.1 1 .3.5.3 1.2.3 1.8 0 .5-.3.9-.8.9-1.5.1-2.6 2.3-4.6 4.9-4.6.8 0 1.6.2 2.4.6.5.3 1.1.3 1.6.1.5-.2.9-.6 1-1.2 1.1-4.3 5-7.2 9.4-7.2 1.7 0 3.3.4 4.8 1.3.7.4 1.7.2 2.2-.4 2.6-3 6.3-4.7 10.2-4.7 3.4 0 6.6 1.2 9.1 3.5.7.6 1.8.6 2.4 0 3.6-3.5 8.4-5.4 13.4-5.4 10.6 0 19.3 8.7 19.3 19.3 0 10.6-8.6 19.3-19.3 19.3-7.1 0-13.5-3.9-16.9-10.1-.4-.8-1.5-1.2-2.3-.8-1.8.8-3.7 1.2-5.7 1.2-3.9 0-7.7-1.7-10.2-4.7-.5-.6-1.5-.8-2.2-.4-1.4.8-3.1 1.3-4.8 1.3-3 0-5.8-1.4-7.7-3.8-.3-.4-.8-.7-1.4-.7-.5 0-1.1.2-1.4.7-.9 1.2-2.3 1.9-3.9 1.9-1 0-1.8.8-1.8 1.8s.8 1.8 1.8 1.8c1.9 0 3.7-.6 5.2-1.8 2.5 2.4 5.7 3.7 9.2 3.7 1.8 0 3.6-.4 5.3-1.1 3.2 3.1 7.5 4.9 12 4.9 1.9 0 3.8-.3 5.7-1C93.9 41.9 101.1 46 109 46c12.6 0 22.9-10.3 22.9-22.9C131.7 10.6 121.4.3 108.8.3z" />
	<path class="st0"
		d="M55.2 99.9c-1 0-1.8.8-1.8 1.8v3.8c0 1 .8 1.8 1.8 1.8s1.8-.8 1.8-1.8v-3.8c0-1-.8-1.8-1.8-1.8zM62.8 99.9c-1 0-1.8.8-1.8 1.8v3.8c0 1 .8 1.8 1.8 1.8s1.8-.8 1.8-1.8v-3.8c0-1-.8-1.8-1.8-1.8zM70.5 99.9c-1 0-1.8.8-1.8 1.8v3.8c0 1 .8 1.8 1.8 1.8s1.8-.8 1.8-1.8v-3.8c0-1-.8-1.8-1.8-1.8zM78.2 99.9c-1 0-1.8.8-1.8 1.8v3.8c0 1 .8 1.8 1.8 1.8s1.8-.8 1.8-1.8v-3.8c-.1-1-.8-1.8-1.8-1.8zM85.8 99.9c-1 0-1.8.8-1.8 1.8v3.8c0 1 .8 1.8 1.8 1.8s1.8-.8 1.8-1.8v-3.8c0-1-.8-1.8-1.8-1.8zM93.5 99.9c-1 0-1.8.8-1.8 1.8v3.8c0 1 .8 1.8 1.8 1.8s1.8-.8 1.8-1.8v-3.8c0-1-.8-1.8-1.8-1.8zM101.2 99.9c-1 0-1.8.8-1.8 1.8v3.8c0 1 .8 1.8 1.8 1.8s1.8-.8 1.8-1.8v-3.8c-.1-1-.8-1.8-1.8-1.8zM108.8 99.9c-1 0-1.8.8-1.8 1.8v3.8c0 1 .8 1.8 1.8 1.8s1.8-.8 1.8-1.8v-3.8c0-1-.8-1.8-1.8-1.8z" />
	<path d="m1.5 48.5 149 65" style="fill:none;stroke:#145b2f;stroke-width:4" />
</svg>
